# Blender 3.5.1
# www.blender.org
mtllib BasicTerrain.mtl
o Terrain
v -0.500000 -0.050000 -0.500000
v 0.500000 -0.050000 -0.500000
v -0.500000 -0.050000 0.500000
v 0.500000 -0.050000 0.500000
v -0.500000 0.000000 -0.500000
v 0.500000 0.000000 -0.500000
v -0.500000 0.000000 0.500000
v 0.500000 0.000000 0.500000
vn 0.5774 -0.5774 -0.5774
vn -0.5774 -0.5774 0.5774
vn -0.5774 -0.5774 -0.5774
vn -0.5774 0.5774 0.5774
vn 0.5774 0.5774 -0.5774
vn -0.5774 0.5774 -0.5774
vn 0.5774 0.5774 0.5774
vn 0.5774 -0.5774 0.5774
vt 0.000000 0.000000
vt 1.000000 0.000000
vt 0.000000 1.000000
vt 1.000000 1.000000
vt 0.000000 0.000000
vt 1.000000 0.000000
vt 0.000000 1.000000
vt 1.000000 1.000000
s 1
usemtl Terrain
f 2/2/1 3/3/2 1/1/3
f 7/7/4 6/6/5 5/5/6
f 3/3/2 5/5/6 1/1/3
f 1/1/3 6/6/5 2/2/1
f 2/2/1 8/8/7 4/4/8
f 4/4/8 7/7/4 3/3/2
f 2/2/1 4/4/8 3/3/2
f 7/7/4 8/8/7 6/6/5
f 3/3/2 7/7/4 5/5/6
f 1/1/3 5/5/6 6/6/5
f 2/2/1 6/6/5 8/8/7
f 4/4/8 8/8/7 7/7/4
